<?xml version="1.0" standalone="no"?>
<!DOCTYPE svg PUBLIC "-//W3C//DTD SVG 20010904//EN"
 "http://www.w3.org/TR/2001/REC-SVG-20010904/DTD/svg10.dtd">
<svg version="1.0" xmlns="http://www.w3.org/2000/svg"
 width="300.000000pt" height="300.000000pt" viewBox="0 0 300.000000 300.000000"
 preserveAspectRatio="xMidYMid meet">
<g transform="translate(0.000000,300.000000) scale(0.100000,-0.100000)"
fill="#0d5cab" stroke="none">
<path d="M870 2395 c0 -52 5 -106 12 -120 8 -19 172 -133 541 -380 l529 -353
-519 -344 c-285 -190 -527 -355 -538 -367 -17 -19 -21 -40 -23 -127 -2 -57 0
-104 5 -103 21 2 1260 837 1277 861 10 14 21 48 23 75 4 39 0 54 -19 81 -15
21 -245 181 -650 452 -345 231 -630 420 -633 420 -3 0 -5 -43 -5 -95z"/>
<path d="M887 1962 c-13 -14 -17 -37 -17 -88 l0 -69 242 -160 c226 -150 244
-160 288 -160 39 0 58 7 104 39 31 21 56 42 56 46 0 4 -136 98 -303 208 -197
132 -311 202 -328 202 -14 0 -33 -8 -42 -18z"/>
</g>
</svg>